HIERARCHY
ROOT Hips
{
	OFFSET -14.64140 90.27770 -84.91600
	CHANNELS 6 Xposition Yposition Zposition Zrotation Xrotation Yrotation
	JOINT Spine
	{
		OFFSET 0.00000 13.20850 -1.60436
		CHANNELS 3 Zrotation Xrotation Yrotation
		JOINT Spine1
		{
			OFFSET 0.00000 8.61716 0.00000
			CHANNELS 3 Zrotation Xrotation Yrotation
			JOINT Spine2
			{
				OFFSET 0.00000 8.61717 0.00000
				CHANNELS 3 Zrotation Xrotation Yrotation
				JOINT Spine3
				{
					OFFSET 0.00000 8.61717 0.00000
					CHANNELS 3 Zrotation Xrotation Yrotation
					JOINT Neck
					{
						OFFSET 0.00000 11.07920 1.10792
						CHANNELS 3 Zrotation Xrotation Yrotation
						JOINT Neck1
						{
							OFFSET 0.00000 7.08032 0.00000
							CHANNELS 3 Zrotation Xrotation Yrotation
							JOINT Head
							{
								OFFSET 0.00000 7.08031 0.00000
								CHANNELS 3 Zrotation Xrotation Yrotation
								End site
								{
									OFFSET 0.00000 0.00000 0.00000
								}
							}
						}
					}
					JOINT RightShoulder
					{
						OFFSET -0.01000 7.91373 5.19711
						CHANNELS 3 Zrotation Xrotation Yrotation
						JOINT RightArm
						{
							OFFSET -18.41580 0.00000 0.00000
							CHANNELS 3 Zrotation Xrotation Yrotation
							JOINT RightForeArm
							{
								OFFSET -29.11090 0.00000 0.00000
								CHANNELS 3 Zrotation Xrotation Yrotation
								JOINT RightHand
								{
									OFFSET -24.65040 0.00000 0.00000
									CHANNELS 3 Zrotation Xrotation Yrotation
									JOINT RightHandThumb1
									{
										OFFSET -5.35114 -0.85590 3.97906
										CHANNELS 3 Zrotation Xrotation Yrotation
										JOINT RightHandThumb2
										{
											OFFSET -4.52789 0.00000 0.00000
											CHANNELS 3 Zrotation Xrotation Yrotation
											JOINT RightHandThumb3
											{
												OFFSET -2.46976 0.00000 0.00000
												CHANNELS 3 Zrotation Xrotation Yrotation
												End site
												{
													OFFSET 0.00000 0.00000 0.00000
												}
											}
										}
									}
									JOINT RightHandIndex1
									{
										OFFSET -14.26970 0.00000 2.88139
										CHANNELS 3 Zrotation Xrotation Yrotation
										JOINT RightHandIndex2
										{
											OFFSET -5.48836 0.00000 0.00000
											CHANNELS 3 Zrotation Xrotation Yrotation
											JOINT RightHandIndex3
											{
												OFFSET -3.01859 0.00000 0.00000
												CHANNELS 3 Zrotation Xrotation Yrotation
												End site
												{
													OFFSET 0.00000 0.00000 0.00000
												}
											}
										}
									}
									JOINT RightHandMiddle1
									{
										OFFSET -14.26970 0.00000 -0.09147
										CHANNELS 3 Zrotation Xrotation Yrotation
										JOINT RightHandMiddle2
										{
											OFFSET -6.17441 0.00000 0.00000
											CHANNELS 3 Zrotation Xrotation Yrotation
											JOINT RightHandMiddle3
											{
												OFFSET -3.56743 0.00000 0.00000
												CHANNELS 3 Zrotation Xrotation Yrotation
												End site
												{
													OFFSET 0.00000 0.00000 0.00000
												}
											}
										}
									}
									JOINT RightHandRing1
									{
										OFFSET -12.69180 0.00000 -3.06433
										CHANNELS 3 Zrotation Xrotation Yrotation
										JOINT RightHandRing2
										{
											OFFSET -5.62556 0.00000 0.00000
											CHANNELS 3 Zrotation Xrotation Yrotation
											JOINT RightHandRing3
											{
												OFFSET -3.56744 0.00000 0.00000
												CHANNELS 3 Zrotation Xrotation Yrotation
												End site
												{
													OFFSET 0.00000 0.00000 0.00000
												}
											}
										}
									}
									JOINT RightHandPinky1
									{
										OFFSET -11.11390 0.00000 -6.03719
										CHANNELS 3 Zrotation Xrotation Yrotation
										JOINT RightHandPinky2
										{
											OFFSET -4.52789 0.00000 0.00000
											CHANNELS 3 Zrotation Xrotation Yrotation
											JOINT RightHandPinky3
											{
												OFFSET -2.46976 0.00000 0.00000
												CHANNELS 3 Zrotation Xrotation Yrotation
												End site
												{
													OFFSET 0.00000 0.00000 0.00000
												}
											}
										}
									}
								}
							}
						}
					}
					JOINT LeftShoulder
					{
						OFFSET 0.01000 7.91373 5.19711
						CHANNELS 3 Zrotation Xrotation Yrotation
						JOINT LeftArm
						{
							OFFSET 18.41580 0.00000 0.00000
							CHANNELS 3 Zrotation Xrotation Yrotation
							JOINT LeftForeArm
							{
								OFFSET 29.11090 0.00000 0.00000
								CHANNELS 3 Zrotation Xrotation Yrotation
								JOINT LeftHand
								{
									OFFSET 24.65040 0.00000 0.00000
									CHANNELS 3 Zrotation Xrotation Yrotation
									JOINT LeftHandThumb1
									{
										OFFSET 5.35114 -0.85590 3.97906
										CHANNELS 3 Zrotation Xrotation Yrotation
										JOINT LeftHandThumb2
										{
											OFFSET 4.52789 0.00000 0.00000
											CHANNELS 3 Zrotation Xrotation Yrotation
											JOINT LeftHandThumb3
											{
												OFFSET 2.46977 0.00000 0.00000
												CHANNELS 3 Zrotation Xrotation Yrotation
												End site
												{
													OFFSET 0.00000 0.00000 0.00000
												}
											}
										}
									}
									JOINT LeftHandIndex1
									{
										OFFSET 14.26970 0.00000 2.88139
										CHANNELS 3 Zrotation Xrotation Yrotation
										JOINT LeftHandIndex2
										{
											OFFSET 5.48836 0.00000 0.00000
											CHANNELS 3 Zrotation Xrotation Yrotation
											JOINT LeftHandIndex3
											{
												OFFSET 3.01859 0.00000 0.00000
												CHANNELS 3 Zrotation Xrotation Yrotation
												End site
												{
													OFFSET 0.00000 0.00000 0.00000
												}
											}
										}
									}
									JOINT LeftHandMiddle1
									{
										OFFSET 14.26970 0.00000 -0.09147
										CHANNELS 3 Zrotation Xrotation Yrotation
										JOINT LeftHandMiddle2
										{
											OFFSET 6.17440 0.00000 0.00000
											CHANNELS 3 Zrotation Xrotation Yrotation
											JOINT LeftHandMiddle3
											{
												OFFSET 3.56744 0.00000 0.00000
												CHANNELS 3 Zrotation Xrotation Yrotation
												End site
												{
													OFFSET 0.00000 0.00000 0.00000
												}
											}
										}
									}
									JOINT LeftHandRing1
									{
										OFFSET 12.69180 0.00000 -3.06433
										CHANNELS 3 Zrotation Xrotation Yrotation
										JOINT LeftHandRing2
										{
											OFFSET 5.62556 0.00000 0.00000
											CHANNELS 3 Zrotation Xrotation Yrotation
											JOINT LeftHandRing3
											{
												OFFSET 3.56744 0.00000 0.00000
												CHANNELS 3 Zrotation Xrotation Yrotation
												End site
												{
													OFFSET 0.00000 0.00000 0.00000
												}
											}
										}
									}
									JOINT LeftHandPinky1
									{
										OFFSET 11.11390 0.00000 -6.03719
										CHANNELS 3 Zrotation Xrotation Yrotation
										JOINT LeftHandPinky2
										{
											OFFSET 4.52789 0.00000 0.00000
											CHANNELS 3 Zrotation Xrotation Yrotation
											JOINT LeftHandPinky3
											{
												OFFSET 2.46976 0.00000 0.00000
												CHANNELS 3 Zrotation Xrotation Yrotation
												End site
												{
													OFFSET 0.00000 0.00000 0.00000
												}
											}
										}
									}
								}
							}
						}
					}
					JOINT pCube4
					{
						OFFSET 0.00000 10.91090 1.10792
						CHANNELS 3 Zrotation Xrotation Yrotation
						End site
						{
							OFFSET 0.00000 0.00000 0.00000
						}
					}
				}
			}
		}
	}
	JOINT RightUpLeg
	{
		OFFSET -9.98441 0.00000 0.00000
		CHANNELS 3 Zrotation Xrotation Yrotation
		JOINT RightLeg
		{
			OFFSET 0.00000 -42.11790 0.00000
			CHANNELS 3 Zrotation Xrotation Yrotation
			JOINT RightFoot
			{
				OFFSET 0.00000 -45.00020 -0.00001
				CHANNELS 3 Zrotation Xrotation Yrotation
				JOINT RightForeFoot
				{
					OFFSET 0.00000 -3.74820 0.00000
					CHANNELS 3 Zrotation Xrotation Yrotation
					JOINT RightToeBase
					{
						OFFSET 0.00000 0.06325 14.43120
						CHANNELS 3 Zrotation Xrotation Yrotation
						End site
						{
							OFFSET 0.00000 0.00000 0.00000
						}
					}
				}
			}
		}
	}
	JOINT LeftUpLeg
	{
		OFFSET 9.98441 0.00000 0.00000
		CHANNELS 3 Zrotation Xrotation Yrotation
		JOINT LeftLeg
		{
			OFFSET 0.00000 -42.11800 0.00000
			CHANNELS 3 Zrotation Xrotation Yrotation
			JOINT LeftFoot
			{
				OFFSET 0.00000 -45.00070 0.00000
				CHANNELS 3 Zrotation Xrotation Yrotation
				JOINT LeftForeFoot
				{
					OFFSET 0.00000 -3.74824 0.00000
					CHANNELS 3 Zrotation Xrotation Yrotation
					JOINT LeftToeBase
					{
						OFFSET 0.00000 0.06325 14.43110
						CHANNELS 3 Zrotation Xrotation Yrotation
						End site
						{
							OFFSET 0.00000 0.00000 0.00000
						}
					}
				}
			}
		}
	}
}
MOTION
Frames: 4
Frame Time: 0.050000
-0.022591949485245757 -0.012493380650685056 -0.007456371651732849 0.02781344668042765 -0.004020383455628658 0.004534965747242712 2.3520829822320253 1.028004023250968 -1.8541604093512816 -0.8421066758643394 3.369515677154749 0.4335956212427414 -0.9246112237018751 -1.610536402304942 0.5437978701525263 -0.6393537569591397 -0.30660137278626864 -0.41669371178259157 0.29306725778909326 13.080576883955802 -1.2970799837465767 0.5251037547177757 0.611639932571027 -3.622960495335315 1.0838804984102341 -14.725759961157655 -0.2612082264389535 -9.624029103033768 3.4523869989085227 -15.391557442421407 75.7004604644709 4.319894464703961 22.01354695541963 41.827408993306655 9.92383925649736 94.29791988259024 18.078356068062345 -0.40353360239553066 -7.569336832087008 4.512151642229773 -0.14679820097499827 -1.5907110310053032 0.017956616711291885 0.026990820048984756 -56.21816516085505 0.035232109335933744 -0.02688654965765626 -56.20636325545142 -38.7611595450593 -0.045728414888796184 0.010659361814104283 -0.04173422692799286 -0.032308071235479005 0.005876383991069404 0.014839492635807753 0.010167445155057266 -0.029572234390631554 -36.712573955877275 0.004038555772545302 -0.010317083324409147 -0.04452008795075102 -0.005005430236128811 0.012692003309989586 -0.033227517325516764 0.032546249877130985 0.016837779838697133 -19.778194658987715 -0.03558389684879481 -0.02435728045735522 0.048228110648407325 -0.024663536784047944 0.021558822039067584 0.02992522710199714 -0.04754644523942131 -0.002098580916830485 24.007144345642036 0.0028419997109092065 -0.03942284483080261 28.838124542420182 -0.04335091645893079 -0.0011535967243770187 28.830235232611322 -0.006048779662877477 -0.02516476836771914 9.550917569161934 2.2947867689329113 13.228646941567545 -73.72266578560172 23.004201514862356 -19.756966986693676 -55.664186005880254 13.124432329943867 -96.00075132207297 -18.615908420771092 -8.311129061891084 6.4978586657019735 -0.5233289471009165 0.06203486356166326 -8.154018347156235 -0.030532537261195893 0.00015302807392508715 44.607693122199336 0.018036701517959282 0.011872725873298661 44.53578514418051 12.459632863144657 0.04917113551739798 -0.04696833050637617 -0.02101635846662827 0.009857796159631787 0.016568209905073725 -0.00753063044752542 0.008527678498226807 -0.041772732969934015 11.079987164654929 -0.004529196348929374 0.0014832359083321095 -0.02334098750379982 0.0022718506349839822 -0.04797644683839038 0.041194962503256924 -0.00997494760812955 -0.03433651838022952 4.796457686092272 0.031223735137144652 0.0023937087402132544 -0.00847354340949314 -0.005081913457885831 -0.009888880113874376 0.040755811099325676 -0.048607949089771126 0.02341763243884595 -5.589613186003154 0.043918010060772235 -0.007859388368873552 -6.718144432679931 0.020083535950303145 -0.02591535702426928 -6.702248142477413 -0.04005953290828821 -0.020902737996619205 -0.04816047121286104 -0.031498979192927164 -0.026873631610954338 8.088624482726438 3.4553794020062325 -19.257642576636915 0.009868802441108396 10.420752713759658 0.038398681859058564 -5.65538504462459 -15.681276117935324 3.221585882634147 -0.03423593291360954 0.03011184463723752 0.025819746495518305 -0.014412981449664526 4.746150167256025 0.008893636992326693 12.433969621642214 -8.21266872334137 6.839964917709746 -0.048880957343400554 46.42007421812734 0.038384999341204935 -4.359461067437432 -14.777225390171424 -3.851374544686633 -0.04584103216898056 0.006098787612440995 0.02340845182471415 -0.03840756697288545 -10.699240370703897 -0.02392778908662399 
-0.0044289465077387395 0.013178076487556768 0.047342026938166124 -0.0005059203606397947 -0.03652681342563924 -0.018584283640522597 2.0049551600476434 0.9994806095098245 -1.78211306335505 -0.8246108216844383 3.3376339379763067 0.42915136079270816 -0.9815928583670217 -1.6328029208463934 0.7411984058831727 -0.7454846552525437 -0.3147719544025494 -0.37242704372589375 0.3708397827652571 13.252617105202082 -1.3377699114984158 0.5989220548579479 0.6319304471955578 -3.8134754087921525 1.132114212296949 -14.673044734080676 -0.3755987201502834 -9.877378429452351 3.4893714246349132 -15.317960375467262 75.30978491625137 1.0924473275252458 24.206374243481154 41.78308452215586 9.55082412590697 95.28084076340356 17.5051230040399 -0.4601585644082831 -7.297969641815887 4.544184012580892 -0.13352114979746457 -1.602045635811967 0.03572092645510245 0.013103137915502402 -56.19105128952109 0.03402306701391443 0.007228518320479081 -56.25490285512087 -38.807565335511384 -0.011738412568047037 -0.012185391674946389 0.03365781303432349 -0.0484954911033233 0.03706155853705455 0.020959437487087475 0.01891754792486863 -0.0014257603052663095 -36.72937197110991 0.030644834349037104 0.0056494240101501655 -0.002830801103106276 0.02730963662267095 0.013399635310228268 -0.0037627336008362357 -0.02594503519801979 -0.02410874224840649 -19.712828652875302 -0.0069015495112559055 -0.04006017879992954 0.033988570754027295 0.046394985378876645 0.03082874341797138 -0.004962800451627348 -0.0472302723941261 0.009723738012181547 24.016198575134226 0.020157207356139892 -0.044669030687674506 28.82890441855337 0.01599697572898919 0.0003349987930425807 28.84869170311695 -0.004916982858504505 0.03330677855127205 9.371326849085227 2.2766746215478486 13.230486085390906 -73.5394135345459 23.43922411361001 -18.96678492808902 -54.130852480580764 12.666935411698958 -95.8877212825518 -18.0134833450686 -7.77758323844123 5.885304904984178 -0.4695467757173616 0.07365657984979793 -8.134227135082497 -0.02321701304971401 -0.04787325799020975 44.610342619484484 0.044848926628882735 0.02301978627567381 44.58369612859448 12.451790181752973 0.007094426841640375 0.04087327915101423 0.041990333104840016 0.0329591172911156 0.03785514248230898 -0.03922544201313111 -0.036735214358700696 0.02067697772538069 11.12303846222792 0.008874790210862918 -0.012653824828035806 -0.03528951018983001 0.0004886383186745841 0.046553522289541606 0.03668217873393809 0.00888211081810118 -0.04466827259942856 4.7411330484552 0.0004800489185750119 0.005799343902422022 -0.045057172593365634 0.002320724793899587 -0.047381365906271615 -0.023122997120219316 -0.002056426181924682 0.03860437900294685 -5.642759360297415 0.03418371798842029 0.0066241331851832385 -6.745748780524888 -0.017927898983400074 -0.0369136289534935 -6.7601658406798615 6.521938440837322e-07 -0.018947716668141847 -0.041562160358142086 -0.019139868932843935 0.0007095591249476011 8.079785924415024 3.5419250899838675 -19.233257008341106 0.02491337671769608 10.431933769275329 0.013359930407620887 -5.62354117259563 -15.692733367655936 3.2077895890488928 0.0015215085636646078 0.023629819187808404 -0.00043705355908658727 0.03531245364040507 4.708725485481647 -0.02286994242773455 12.454063350364008 -8.27153582739753 6.899188632484143 -0.013646930762812601 46.40977964015734 -0.03923128434843563 -4.328895148839694 -14.715099104040956 -3.812671410059739 -0.02813151621249694 0.02590305106211314 0.008786523090151351 -0.04974906995551161 -10.77832038873555 -0.0005656614973043478 
0.008229232981503042 -0.016468427641015568 0.00659587023312571 0.030750761213939923 0.03533650535107224 0.013731639817941725 1.7418004319423483 0.9229862061572496 -1.711516429093654 -0.7892377806319306 3.4396124779160773 0.44596454528706253 -0.9846264978262066 -1.6828223909733124 0.904634483605844 -0.830030956429908 -0.36212100836932737 -0.40596894964398816 0.47195048107041687 13.42936537327565 -1.3977306243512662 0.6103197406106754 0.6759566245662634 -4.03712832368924 1.1811642372452287 -14.570370397585934 -0.35968647540592164 -10.12927422606546 3.609494235353673 -15.215985541786074 75.02643468164672 -1.407229305128656 26.534558891132335 40.85634062362081 9.35567609391631 96.36227505183152 16.885272446016746 -0.49506728356458496 -6.946274798420389 4.571613894345846 -0.1701270512189595 -1.617217624901005 -0.03793987247205168 -0.021417887280824666 -56.191483444610284 -0.003288928951704036 0.021218257133354193 -56.22177866276791 -38.799365464665726 -0.014372204196515807 -0.04945185335531453 -0.029466778040803103 -0.01945394856992982 -0.04093540235423928 -0.03144397736409188 0.046600287943447484 -0.016396571534821 -36.72199851237737 0.027181344430409895 0.04882002212865076 -0.023621420769077334 0.0029357781340043597 -0.029995928964859083 0.032013194154546426 -0.014649770609248635 0.03047223473907172 -19.73703657846604 0.0397679800458431 -0.04168776769357387 -0.04463494334120603 -0.023745037412007446 -0.04396310669717097 -0.04352475804599716 -0.02317842545815823 0.001770907047012879 24.062899513414745 -0.011186658922495929 -0.017783899271845108 28.85956065390968 0.012350654150862837 0.00030232004541891713 28.858830588507075 -0.019314881534904797 0.027145486181751735 9.119367965004686 2.247009520700134 13.133758275995286 -73.14245740884886 24.115255068550702 -18.38164162138497 -51.08201730269614 12.243241902244218 -95.86419718506114 -17.55534847824383 -7.398366525851466 5.474526748125128 -0.49485777472789355 0.039840204379577145 -8.098660215691481 0.008402393942702325 0.013444660437382476 44.57799201893596 -0.01395459414875461 0.0473923804174203 44.55315859800719 12.488262632836838 -0.019105821788508934 0.009604409633805659 0.015419074122470715 0.04917700377177801 -0.036276881857934394 -0.015724625970053138 0.005439846665588595 -0.0015615050434641083 11.063440603309632 0.04435396773221546 0.022451715123191798 0.0027728962008233154 -0.03622187208776693 -0.00208242866816212 0.010666134264640073 0.00285402343397552 -0.010151532883277014 4.777564983899776 0.020566906120927854 -0.02406285967856692 0.008179272746365198 0.024558417246466152 -0.020325359812749924 -0.026126571680702166 0.009124529789620174 0.02189443508518131 -5.642902381659632 0.031101953745699667 0.042900990717443965 -6.697415273801958 0.00035918015666455683 -0.00566278602730276 -6.735655537251488 -0.024408732532597188 -0.04873666336138878 0.0011747585661346634 0.0039220489920938255 -0.03483788702075358 8.063728052097193 3.504936744323614 -19.18810289208991 -0.014260774918795746 10.414113521739356 0.044238771901886645 -5.6195916844561244 -15.705885498665822 3.2388206012568777 0.025259652102169718 -0.0051939473380373585 -0.014358800925433806 -0.0031657351279804585 4.684443574073943 -0.04081495883745744 12.455639462464017 -8.264473202784004 6.867448909200274 0.00016470711421066915 46.36106293821851 -0.047697852891630005 -4.337855863500285 -14.754834369931048 -3.809244623737221 0.02854796258637145 0.015201268938368066 -0.007551837903763622 0.02689397824875868 -10.74266997391082 0.015700645921793984 
-0.02801648060478433 -0.046101533993336496 -0.03194914052716174 -0.034092264110954985 -0.014238103561250541 0.03855883233971245 1.690373033309538 0.8687982368154494 -1.7455228969585705 -0.7974145903693703 3.4050846905998693 0.38840168565857497 -0.972585576384669 -1.6894438989186207 1.0816972694122582 -0.8875118512918401 -0.3772345938551324 -0.35027000153106697 0.5193995904623534 13.531276463343483 -1.3642269117238335 0.5911219714981701 0.6923472569441032 -3.914871783889037 1.1730860586807204 -14.611516271420228 -0.3427761315198583 -10.310106578395928 3.5886456458039393 -15.146132916745936 75.15882244863211 -2.756459117406157 28.431733062582058 40.306024580545056 9.338895215672364 98.03572485888 16.46148384974268 -0.5295395748398922 -6.7985080866146035 4.554105495942663 -0.1717208913851601 -1.6258557710160544 0.010729447816209867 -0.01664285270739911 -56.279369872113094 -0.001704346125268944 0.02857641803933275 -56.23235901908887 -38.76687696757531 -0.028850048593447735 0.006377453267557605 0.03211594326441771 0.006398051889944551 0.03109341109938276 0.04252786533165628 0.0066928361995241435 0.04488779696676575 -36.71739359745508 0.0023071375921604634 0.035929303433440536 0.006161565166968873 0.027574439126042474 -0.018937974032044447 -0.016469188656004434 0.02419670157315528 0.03528003046992123 -19.724087230140494 0.0020201395163470643 -0.04425154987371518 0.007409171234616543 -0.046666738953913774 -0.009200954869244486 -0.048814695827362524 -0.025925006348541352 -0.03713893998974173 24.08351690845661 0.005407250892123486 0.019613820071515135 28.897036339294242 0.046646391421692614 -0.023730161921574854 28.87662748062387 -0.018126635332241403 0.04056688189829308 9.127124599474774 2.2068727456005717 13.13384158598159 -73.09930950493462 24.647212819379284 -18.207315983036008 -49.47311226884014 12.259229430615255 -97.0101866381473 -17.44429159748157 -7.4135836835588576 5.292102670013557 -0.43415885102193436 0.049870185278171636 -8.11509932863698 -0.041484270326690824 -0.03269793407472392 44.57195841138043 0.02877942434754558 -0.031091360219507765 44.540304344361 12.484338697916332 -0.008019492335835356 0.0026170410243595366 0.007956333236647089 0.04867345739960364 -0.008535154302726023 -0.024380250543365543 -0.025056274250010564 0.029799730186783644 11.13592258486734 -0.002746419231779803 -0.035428718341127485 -0.03785214348661349 0.014016554421452878 -0.024818578921589007 0.008014563991663703 0.024388632176591638 0.02998164720676983 4.821889130541348 -0.017035306200949278 0.009517900833775282 0.01324830922957272 0.037094170397776745 0.015107297488825703 0.011944243670400352 -0.021801119879389007 0.014233398910393515 -5.595722035442689 -0.024289793721759642 -0.010938679559240277 -6.697585504355805 0.043620110069735464 0.03573901713960061 -6.745032912625339 -0.04071257169017105 -0.018520519046562847 -0.00033719914346947935 -0.03221853998636538 0.019232012985262163 8.086088854567604 3.4980856963823013 -19.261024883137758 0.004560216634548985 10.366552796187325 0.06316453557888047 -5.6625252617180415 -15.684179050825975 3.235761717881419 -0.017928120120819326 -0.03346628281314237 0.030886873446939755 -0.005329144418231972 4.683027586377257 0.046198271152553635 12.454351798678415 -8.265750951901364 6.864313873766148 -0.03828625668451989 46.387903065787825 0.03504810907735455 -4.3285680832013815 -14.708170467654693 -3.843338868384864 0.021159503083494315 0.04742529393979755 0.024103221979873364 -0.039038659466486166 -10.73000361632151 0.01830301476670104 
